<?xml version="1.0" encoding="utf-8"?>
<!-- Generator: Adobe Illustrator 19.2.1, SVG Export Plug-In . SVG Version: 6.00 Build 0)  -->
<svg version="1.1" id="Layer_1" xmlns="http://www.w3.org/2000/svg" xmlns:xlink="http://www.w3.org/1999/xlink" x="0px" y="0px"
	 viewBox="0 0 288 60" style="enable-background:new 0 0 288 60;" xml:space="preserve">
<style type="text/css">
	.st0{fill:#529EDC;}
</style>
<g>
	<g>
		<path class="st0" d="M19,18.9c-5.2-4.1-11.6-6.1-19-6.1v7.9c4.6,0,8.5,1.3,11.7,3.8c3.2,2.5,4.9,5.5,4.9,9c0,3.5-1.6,6.6-4.9,9.1
			C8.5,45.1,4.6,46.4,0,46.4v7.9c7.5,0,13.8-2,19-6.1c5.2-4.1,7.9-9,7.9-14.7C26.9,27.8,24.3,22.9,19,18.9z"/>
		<rect y="1.5" class="st0" width="26.9" height="8"/>
		<polygon class="st0" points="36.6,9.4 44.1,9.4 44.1,54.3 53.4,54.3 53.4,9.4 53.4,1.5 36.6,1.5 		"/>
		<polygon class="st0" points="147.9,34.9 147.9,30.9 139,30.9 139,16.6 151,16.6 151,30.9 157.2,30.9 157.2,3.6 151,3.6 151,12.6 
			126.8,12.6 130.3,5.8 148,5.8 148,1.7 106.2,1.7 106.2,5.8 120.6,5.8 117,12.6 104.5,12.6 104.5,16.6 114.9,16.6 105.6,34.9 
			115.6,34.9 124.7,16.6 129.9,16.6 129.9,34.9 		"/>
		<polygon class="st0" points="189.7,16.1 182.3,16.1 182.3,34.9 194.9,34.9 194.9,30.9 189.7,30.9 		"/>
		<rect x="234.2" y="2.4" class="st0" width="7.3" height="4.7"/>
		<path class="st0" d="M281.4,14.1h6.2V3.5h-16.5V1H262v2.5h-18V10h-12l-2.6-9H221l2.6,8.8h-11.9v-4h5.7l0-4.1h-19.1v4.1h4.7v4
			l-21.3,0l1.5-8.8h-8.1l-1.6,8.9h-8.3V1h-6.9v33.9h6.9V14.4h7.4L168,34.9h8.4l4.4-20.5H203v6.1l-6.1,1.2V27l6.1-1.2v5.1h-3.1l0,4
			h11.9V24.2l5.7-1.1v-5.4l-5.7,1.1v-4.4h13l2.5,8.1l-8.7,3.8v6.2l10.3-4.5l2.1,6.9h8.5l-3.1-10.2l5.2-2.3v-6.2l-6.8,3l-1.5-5.1H244
			l0,20.8h9.1V14.1h25.3H281.4z M253.1,7.6h25.3v2.6h-25.3V7.6z"/>
		<polygon class="st0" points="287.5,21.1 287.5,17.3 275.7,17.3 275.7,14.8 266.6,14.8 266.6,17.3 254.4,17.3 254.4,21.1 258,21.1 
			255.3,34.9 263.9,34.9 265.4,27.7 278.2,27.7 278.2,30.9 272.8,30.9 272.8,34.9 286.9,34.9 286.9,23.8 266.2,23.8 266.7,21.1 		
			"/>
		<ellipse class="st0" cx="189.3" cy="3.6" rx="3.7" ry="3.6"/>
		<path class="st0" d="M164.9,46.8c-0.5-0.5-1.1-0.9-1.8-1.3c-0.7-0.3-1.5-0.5-2.3-0.5c-0.8,0-1.5,0.1-2.2,0.4
			c-0.7,0.3-1.3,0.7-1.8,1.2c-0.5,0.5-0.9,1.1-1.2,1.8c-0.3,0.7-0.4,1.4-0.4,2.1c0,0.7,0.1,1.4,0.4,2c0.3,0.6,0.7,1.2,1.1,1.7
			c0.5,0.5,1.1,0.9,1.8,1.2c0.7,0.3,1.5,0.5,2.3,0.5h0h0c0.8,0,1.5-0.2,2.2-0.5c0.7-0.3,1.3-0.7,1.8-1.2c0.5-0.5,0.9-1.1,1.2-1.7
			c0.3-0.7,0.4-1.4,0.4-2.1c0-0.7-0.1-1.3-0.4-2C165.8,47.9,165.4,47.3,164.9,46.8z M164.8,52c-0.2,0.5-0.5,1-0.9,1.4
			c-0.4,0.4-0.8,0.7-1.4,1c-0.5,0.2-1.1,0.4-1.7,0.4c-0.6,0-1.2-0.1-1.7-0.3c-0.5-0.2-0.9-0.5-1.3-0.9c-0.4-0.4-0.7-0.8-0.9-1.3
			c-0.2-0.5-0.3-1-0.4-1.6c0-0.5,0.1-1,0.3-1.5c0.2-0.5,0.5-1,0.9-1.4c0.4-0.4,0.8-0.7,1.4-1c0.5-0.3,1.1-0.4,1.7-0.4
			c0.6,0,1.2,0.1,1.7,0.4c0.5,0.2,1,0.6,1.4,0.9c0.4,0.4,0.7,0.8,0.9,1.3c0.2,0.5,0.3,1,0.3,1.6C165.1,51,165,51.5,164.8,52z"/>
		<path class="st0" d="M178.3,41.7c-0.1-0.1-0.3-0.2-0.5-0.3c-0.2-0.1-0.4-0.2-0.7-0.2c-0.3-0.1-0.7-0.1-1.1-0.1
			c-0.6,0-1.1,0.1-1.6,0.4c-0.4,0.3-0.7,0.6-1,1.1c-0.2,0.4-0.4,0.9-0.5,1.4c-0.1,0.5-0.1,0.9-0.1,1.4v1.1h-1.6v1.3h1.6v8.2h1.3
			v-8.2h3.2v-1.3h-3.2v-1.1c0-0.3,0-0.6,0.1-1c0-0.3,0.1-0.7,0.3-1c0.1-0.3,0.3-0.5,0.6-0.7c0.2-0.2,0.5-0.3,0.9-0.3
			c0.3,0,0.6,0,0.8,0.1c0.6,0.2,0.9,0.5,0.9,0.5l1-0.7C178.7,42.2,178.4,41.8,178.3,41.7z"/>
		<path class="st0" d="M191.5,46.2c-0.4-0.4-0.8-0.7-1.4-0.9c-0.5-0.2-1.2-0.3-1.9-0.3c-0.7,0-1.4,0.1-2.1,0.4
			c-0.7,0.3-1.3,0.6-1.9,0.9l-0.5,0.3l0.9,1l0.3-0.2c0.6-0.4,1.2-0.6,1.7-0.8c1.1-0.4,2.1-0.4,2.8-0.1c0.4,0.1,0.7,0.3,1,0.6
			c0.3,0.3,0.5,0.6,0.6,0.9c0.1,0.4,0.2,0.8,0.2,1.2v0.1v0.4c-0.2-0.1-0.5-0.1-0.8-0.2c-0.7-0.1-1.4-0.2-2.4-0.2c-0.5,0-1,0-1.6,0.1
			c-0.6,0.1-1.1,0.3-1.6,0.5c-0.5,0.2-0.9,0.6-1.2,1c-0.4,0.4-0.5,1-0.5,1.6c0,0.5,0.1,0.9,0.3,1.4c0.2,0.4,0.5,0.8,0.8,1.1
			c0.4,0.3,0.8,0.5,1.3,0.7c0.5,0.2,1,0.3,1.5,0.3c0.9,0,1.8-0.2,2.7-0.5c0.5-0.2,1-0.4,1.4-0.8v1h1.3v0c0,0,0,0,0,0l0-1.3v-5.3
			c0-0.6-0.1-1.1-0.3-1.6C192.1,47.1,191.9,46.6,191.5,46.2z M191.3,52.7c0,0.1-0.1,0.3-0.2,0.5c-0.2,0.3-0.4,0.5-0.7,0.7
			c-0.3,0.2-0.6,0.4-1,0.5c-0.4,0.1-0.7,0.2-1.1,0.3c-0.8,0.1-1.5,0.2-2.1-0.1c-0.3-0.1-0.6-0.3-0.8-0.5c-0.2-0.2-0.4-0.4-0.6-0.7
			c-0.1-0.3-0.2-0.5-0.2-0.9c0-0.3,0.1-0.6,0.3-0.8c0.2-0.3,0.5-0.5,0.8-0.6c0.4-0.2,0.7-0.3,1.2-0.4c0.4-0.1,0.9-0.1,1.3-0.1
			c0.6,0,1.2,0,1.7,0.1c0.5,0.1,0.9,0.2,1.4,0.3V52.7z"/>
		<path class="st0" d="M207.8,46.7c-0.3-0.5-0.6-0.9-1.1-1.3c-0.5-0.3-1.2-0.5-2-0.5c-0.5,0-1,0.1-1.5,0.2c-0.5,0.1-1,0.3-1.4,0.6
			c-0.4,0.2-0.9,0.6-1.2,0.9c0,0,0,0-0.1,0.1v-1.6H199v10.7h1.4v-6.5c0.1-0.4,0.3-0.7,0.6-1c0.3-0.4,0.6-0.7,1-1
			c0.4-0.3,0.8-0.5,1.3-0.7c0.5-0.2,0.9-0.3,1.4-0.3c0.5,0,1,0.1,1.3,0.3c0.3,0.2,0.5,0.4,0.7,0.7c0.2,0.3,0.3,0.7,0.3,1.2
			c0.1,0.5,0.1,1,0.1,1.4v5.9h1.4v-5.9c0-0.5,0-1-0.1-1.6C208.1,47.8,208,47.2,207.8,46.7z"/>
		<path class="st0" d="M223.1,46.7C223.1,46.6,223.1,46.6,223.1,46.7c-0.4-0.4-0.8-0.7-1.1-0.9c-0.4-0.2-0.8-0.4-1.3-0.6
			c-0.5-0.1-1-0.2-1.5-0.2c-0.8,0-1.5,0.2-2.2,0.5c-0.7,0.3-1.3,0.7-1.7,1.2c-0.5,0.5-0.9,1.1-1.1,1.8c-0.3,0.7-0.4,1.4-0.4,2.1
			c0,0.7,0.1,1.4,0.4,2c0.3,0.7,0.7,1.2,1.2,1.8c0.5,0.5,1.1,0.9,1.8,1.2c0.7,0.3,1.5,0.5,2.3,0.5c0.5,0,0.9-0.1,1.3-0.2
			c0.4-0.1,0.9-0.3,1.3-0.5c0.4-0.2,0.8-0.5,1.1-0.8c0,0,0,0,0,0v1.2c0,0.5-0.1,0.9-0.3,1.2c-0.2,0.4-0.5,0.7-0.8,0.9
			c-0.3,0.3-0.8,0.4-1.2,0.6c-0.5,0.1-1,0.2-1.6,0.2c-0.8,0-1.6-0.1-2.3-0.4c-0.7-0.3-1.2-0.7-1.6-1.4l-0.2-0.3l-1.3,0.4l0.3,0.5
			c0.4,0.8,1.1,1.4,1.9,1.9c0.8,0.5,1.9,0.7,3.2,0.7c0.6,0,1.3-0.1,1.9-0.2c0.6-0.2,1.2-0.4,1.7-0.8c0.5-0.4,0.9-0.8,1.2-1.3
			c0.3-0.5,0.5-1.2,0.5-1.9V45.2h-1.4V46.7z M223.1,52.2c0,0.2-0.1,0.4-0.3,0.7c-0.2,0.3-0.4,0.5-0.6,0.7c-0.2,0.2-0.5,0.4-0.8,0.6
			c-0.3,0.2-0.6,0.3-1,0.4c-0.3,0.1-0.7,0.1-1,0.1c-0.6,0-1.2-0.1-1.7-0.3c-0.5-0.2-1-0.5-1.4-0.9c-0.4-0.4-0.7-0.8-0.9-1.3
			c-0.2-0.5-0.3-1-0.3-1.6c0-0.5,0.1-1,0.3-1.5c0.2-0.5,0.5-1,0.8-1.4c0.3-0.4,0.8-0.7,1.3-1c0.5-0.2,1.1-0.4,1.7-0.4
			c0.4,0,0.8,0.1,1.2,0.2c0.4,0.1,0.8,0.3,1.2,0.5c0.4,0.2,0.7,0.5,1,0.8c0.3,0.3,0.5,0.6,0.6,0.9V52.2z"/>
		<rect x="231.7" y="53.7" class="st0" width="1.4" height="2.1"/>
		<path class="st0" d="M246.8,53c-0.1,0.2-0.2,0.4-0.4,0.6c-0.3,0.2-0.5,0.4-0.9,0.6c-0.3,0.2-0.7,0.3-1,0.4c-0.4,0.1-0.7,0.1-1,0.1
			c-0.6,0-1.2-0.1-1.7-0.3c-0.5-0.2-1-0.5-1.4-0.9c-0.4-0.4-0.7-0.8-0.9-1.3c-0.2-0.5-0.3-1-0.3-1.6c0-0.5,0.1-1,0.3-1.5
			c0.2-0.5,0.5-1,0.8-1.4c0.3-0.4,0.8-0.7,1.3-1c0.5-0.2,1.1-0.4,1.7-0.4c0.7,0,1.4,0.1,2,0.4c0.6,0.3,1,0.7,1.4,1.3l0.2,0.3
			l1.3-0.4l-0.3-0.5c-0.4-0.7-1-1.3-1.7-1.7c-0.7-0.5-1.7-0.7-2.9-0.7c-0.8,0-1.5,0.2-2.2,0.5c-0.7,0.3-1.3,0.7-1.7,1.2
			c-0.5,0.5-0.9,1.1-1.1,1.8c-0.3,0.7-0.4,1.4-0.4,2.1c0,0.7,0.1,1.4,0.4,2c0.3,0.7,0.7,1.2,1.2,1.8c0.5,0.5,1.1,0.9,1.8,1.2
			c0.7,0.3,1.5,0.5,2.3,0.5c0.4,0,0.9-0.1,1.3-0.2c0.5-0.1,0.9-0.3,1.3-0.5c0.4-0.2,0.8-0.5,1.2-0.8c0.4-0.3,0.6-0.7,0.8-1.2
			l0.2-0.5l-1.4-0.4L246.8,53z"/>
		<path class="st0" d="M263.2,46.8c-0.5-0.5-1.1-0.9-1.8-1.3c-0.7-0.3-1.5-0.5-2.3-0.5c-0.8,0-1.5,0.1-2.2,0.4
			c-0.7,0.3-1.3,0.7-1.8,1.2c-0.5,0.5-0.9,1.1-1.2,1.8c-0.3,0.7-0.4,1.4-0.4,2.1c0,0.7,0.1,1.4,0.4,2c0.3,0.6,0.7,1.2,1.1,1.7
			c0.5,0.5,1.1,0.9,1.8,1.2c0.7,0.3,1.5,0.5,2.3,0.5h0h0c0.8,0,1.5-0.2,2.2-0.5c0.7-0.3,1.3-0.7,1.8-1.2c0.5-0.5,0.9-1.1,1.2-1.7
			c0.3-0.7,0.4-1.4,0.4-2.1c0-0.7-0.1-1.3-0.4-2C264.1,47.9,263.7,47.3,263.2,46.8z M263.1,52c-0.2,0.5-0.5,1-0.9,1.4
			c-0.4,0.4-0.8,0.7-1.4,1c-0.5,0.2-1.1,0.4-1.7,0.4c-0.6,0-1.2-0.1-1.7-0.3c-0.5-0.2-0.9-0.5-1.3-0.9c-0.4-0.4-0.7-0.8-0.9-1.3
			c-0.2-0.5-0.3-1-0.4-1.6c0-0.5,0.1-1,0.3-1.5c0.2-0.5,0.5-1,0.9-1.4c0.4-0.4,0.8-0.7,1.4-1c0.5-0.3,1.1-0.4,1.7-0.4
			c0.6,0,1.2,0.1,1.7,0.4c0.5,0.2,1,0.6,1.4,0.9c0.4,0.4,0.7,0.8,0.9,1.3c0.2,0.5,0.3,1,0.3,1.6C263.4,51,263.3,51.5,263.1,52z"/>
		<path class="st0" d="M285.7,46.7c-0.3-0.5-0.7-0.9-1.2-1.2c-0.5-0.3-1.2-0.5-2-0.5c-1.1,0-2,0.3-2.8,0.9c-0.5,0.4-0.9,0.8-1.3,1.3
			c0-0.1,0-0.1-0.1-0.1c-0.2-0.4-0.4-0.8-0.7-1c-0.3-0.3-0.7-0.5-1.1-0.7c-0.4-0.2-1-0.3-1.5-0.3c-1,0-1.9,0.3-2.7,0.8
			c-0.4,0.2-0.7,0.5-1.1,0.9v-1.5h-1.4v10.7h1.4v-6.6c0.1-0.4,0.3-0.7,0.5-1.1c0.2-0.4,0.5-0.7,0.8-1c0.3-0.3,0.7-0.5,1.1-0.7
			c0.4-0.2,0.9-0.3,1.3-0.3c0.5,0,0.9,0.1,1.2,0.2c0.3,0.2,0.5,0.4,0.7,0.7c0.2,0.3,0.3,0.7,0.4,1.1c0.1,0.5,0.1,1,0.1,1.6v5.9h1.4
			v-6.5c0,0,0-0.1,0.1-0.2c0-0.1,0.1-0.2,0.1-0.4c0.1-0.2,0.1-0.3,0.2-0.5c0.1-0.2,0.2-0.4,0.4-0.5c0.3-0.4,0.8-0.8,1.3-1
			c0.5-0.3,1-0.4,1.7-0.4c0.5,0,1,0.1,1.3,0.3c0.3,0.2,0.6,0.4,0.7,0.8c0.2,0.3,0.3,0.7,0.3,1.1c0.1,0.5,0.1,1,0.1,1.4v5.9h1.4v-5.9
			c0-0.5,0-1-0.1-1.6C286.1,47.8,285.9,47.2,285.7,46.7z"/>
		<path class="st0" d="M111,46.6c-0.5,0-1,0.1-1.7,0.3L110,43h5v-1.3h-6.1l-1.3,7c1.2-0.5,2.2-0.8,3-0.8c1,0,1.8,0.3,2.4,0.9
			c0.6,0.6,0.9,1.4,0.9,2.3c0,1.1-0.3,1.9-1,2.6c-0.7,0.7-1.5,1.1-2.4,1.1c-0.5,0-0.9-0.1-1.4-0.3c-0.4-0.2-0.8-0.5-1-0.8
			c-0.3-0.3-0.4-0.8-0.6-1.3h-1.4c0.2,1.1,0.6,2,1.4,2.7c0.8,0.7,1.7,1.1,2.9,1.1c1,0,1.8-0.2,2.5-0.6c0.7-0.4,1.3-1,1.7-1.8
			c0.4-0.8,0.6-1.6,0.6-2.6c0-1.3-0.4-2.4-1.2-3.3C113.3,47,112.3,46.6,111,46.6z"/>
		<polygon class="st0" points="122.8,43.1 125,43.1 125,55.8 126.4,55.8 126.4,41.7 122.8,41.7 		"/>
		<polygon class="st0" points="146.4,52.9 143.1,45.4 142.8,45.4 139.5,52.9 136.3,45.4 134.9,45.4 139.4,55.8 139.6,55.8 143,48.3 
			146.3,55.8 146.6,55.8 151.1,45.4 149.7,45.4 		"/>
	</g>
	<g>
		<rect x="81.9" y="0.6" class="st0" width="0.6" height="54.8"/>
	</g>
</g>
</svg>
